<?xml version="1.0" encoding="utf-8"?>
<!-- Generator: Adobe Illustrator 13.0.0, SVG Export Plug-In . SVG Version: 6.00 Build 14948)  -->
<!DOCTYPE svg PUBLIC "-//W3C//DTD SVG 1.1//EN" "http://www.w3.org/Graphics/SVG/1.1/DTD/svg11.dtd">
<svg version="1.1" id="Layer_1" xmlns="http://www.w3.org/2000/svg" xmlns:xlink="http://www.w3.org/1999/xlink" x="0px" y="0px"
	 width="431.6px" height="314px" viewBox="0 0 431.6 314" enable-background="new 0 0 431.6 314" xml:space="preserve">
<g>
	<path d="M128.8,8.8h0.4c1.862,2.138,5.731,11.6,11.6,28.4V38l-1.6,0.8c-0.538,0-1.6-1.6-3.2-4.8h-2
		c6.663,68.538,10.531,106.8,11.6,114.8c12,4.269,20.531,6.4,25.6,6.4c0.8,0.262,4.531,0.8,11.2,1.6V156c0-2.663-1.6-13.2-4.8-31.6
		c0-2.4-0.938-11.331-2.8-26.8c0-2.4-0.537-5.2-1.6-8.4c0-1.6,1.731-4.263,5.2-8c2.131,1.6,5.6,9.068,10.4,22.4v2.4v0.4v0.8
		l-5.6-5.6h-0.8l8,54.4c0.531,1.331,1.6,2,3.2,2h12l16-0.398L212.8,96l-2-6v-0.8c1.063-2.131,3.063-4.8,6-8
		c7.463,14.137,11.2,23.069,11.2,26.8h-0.399l-4.4-4.8h-0.801h-0.799l8,53.6l0.799,0.802l0.801-0.802h0.8
		c14.662,0,24.131-1.068,28.399-3.2l-9.602-50.4l-2-12l-1.6-4.8c0.801-2.931,2.801-6,6-9.2c6.662,10.4,10.4,19.068,11.199,26v0.4
		l-6-3.6v0.8c5.862,32.269,9.201,49.6,10,52l28.399-5.6v-2c0-2.4-2-16.263-6-41.6l-8.397-55.2
		c-1.601-15.462-3.199-25.331-4.799-29.6c2.662-6.131,4.53-9.2,5.6-9.2c3.73,4.8,7.73,13.737,12,26.8v2v0.4h-0.801
		c-1.068,0-2.398-1.331-4-4c-0.799-0.531-1.336-0.8-1.601-0.8H288l18,111.2h0.399c1.861,0,13.462-3.6,34.8-10.8
		c16.801-6.131,28.399-10,34.801-11.6v-1.6c-12.538-5.063-19.069-7.6-19.601-7.6H350c-9.338,0-14-1.063-14-3.2
		c0-3.2,2.799-6.4,8.399-9.6l0.8-0.8h5.6c4,0,14.532,4,31.602,12c16.8,5.6,30.8,9.337,42,11.2l1.601,1.2
		c0,2.138-1.469,5.337-4.4,9.6c-17.338-2.663-26.8-4-28.399-4h-4c-3.469,0-6,0.538-7.601,1.6v-0.8c-4.269,0-15.067,3.338-32.399,10
		L326,149.2l-19.201,6.4c1.332,9.063,2,15.462,2,19.2v2c0,6.4-0.938,10.4-2.799,12h-0.8c-1.068,0-2.27-6.536-3.601-19.6L299.2,157.6
		l-28.4,6h-0.4c1.602,12,2.399,20.932,2.399,26.799c-0.536,8.265-1.6,12.4-3.198,12.4c-1.068-4.537-2.802-14.668-5.201-30.4
		l-1.601-6.799h-2l-29.601,3.601v0.8L236,208.8c0.263,1.601,0.531,2.4,0.799,2.4h0.802c12,0,32.662-3.738,61.999-11.2
		c28.263-7.469,51.862-14.8,70.801-22c6.399-2.139,10.132-3.2,11.199-3.2c-10.669-5.868-17.6-8.8-20.8-8.8H358.4
		c-7.2,0-12.669-1.2-16.399-3.602V162c2.131-6.669,5.063-10,8.799-10c8.801,0,22.132,4.263,40.001,12.8
		c8,3.464,18.264,6.662,30.8,9.601l5.2,2.399h2.8c1.331,0,2,0.132,2,0.4c0,3.198-1.868,6.399-5.6,9.6h-0.4
		c-2.399,0-3.6-0.399-3.6-1.198l-1.2,0.799H420v-0.799l-14-2.4h-10.4c-8,0.8-12,1.463-12,2c0.531,1.331,3.731,5.463,9.601,12.4v1.6
		l-0.8,0.8l-3.601-0.8c8.8,16.8,13.2,28.531,13.2,35.199c0,4.264-1.469,9.332-4.4,15.201c-2.399,2.398-5.469,3.6-9.199,3.6H387.6
		c-3.469,0-7.067-2.537-10.8-7.6L376.4,244.8c-3.47,7.464-7.47,11.2-12,11.2H361.6c-2.938,0-5.737-2.398-8.399-7.2l-10.4,9.2
		c-4.799,2.132-9.067,3.2-12.799,3.2c-9.338,0-15.601-3.869-18.801-11.601c-1.601-4.801-3.199-7.201-4.8-7.201
		c-3.47,1.063-7.2,6.4-11.2,16c0,1.602-0.27,2.4-0.801,2.4c1.332,4,5.332,7.332,12.001,10c6.931,3.2,10.398,5.863,10.398,8v5.2
		c0,2.663-0.537,4-1.6,4l-10-4.8c-5.601-2.139-10.4-3.2-14.4-3.2h-0.399c-9.068,0-24.938,8.8-47.601,26.399
		C236.131,311.462,231.2,314,228,314h-2.8c-8.27,0-13.869-4.538-16.8-13.602L206.8,292c0-5.868,3.731-15.337,11.201-28.398V262.8
		c-23.201,5.332-36.938,10.263-41.201,14.802c-12.537,12.799-19.737,20-21.6,21.6c-4.269,4.531-9.069,6.8-14.4,6.8
		c-8.8,0-15.068-6-18.8-18c-0.538-3.2-0.8-6.269-0.8-9.2c0-9.068,3.862-20.668,11.6-34.8c2.131-3.2,3.2-5.069,3.2-5.601
		c-20.269,21.062-31.6,31.6-34,31.6c-8.269,5.331-15.737,8-22.4,8h-2.4c-7.469,0-12.8-4.8-16-14.398v-4V254.4
		c0-9.068,5.462-22.537,16.4-40.399h-0.4c-0.538,0-7.069,6.8-19.6,20.399c-7.2,5.863-13.2,8.801-18,8.801h-2.4
		c-6.938,0-12.538-5.6-16.8-16.801v-2.799v-6.4c0-5.6,2.263-13.469,6.8-23.6c2.4-4.271,3.6-6.67,3.6-7.201
		c-5.337,3.463-9.869,5.201-13.6,5.201H16c-6.4,0-11.469-2.938-15.2-8.802H0v-23.6c0-1.068,4.131-8.4,12.4-22
		c5.863-6.932,9.063-10.663,9.6-11.2l0.8,0.8c0,2.138-4.269,8.938-12.8,20.4c-5.6,8.531-8.4,15.6-8.4,21.198v1.201
		c0,7.463,4,11.199,12,11.199c6.663,0,18.531-7.199,35.6-21.6c7.2-5.863,16.531-10.932,28-15.2c2.931-0.531,4.4-0.931,4.4-1.2
		l-0.4-10.4c0-5.331,3.331-12.4,10-21.2c4.8-5.332,8.531-8,11.2-8h1.2c4.8,0,9.063,6.269,12.8,18.8
		c5.863,10.669,12.4,17.737,19.6,21.2h0.8v-0.4c-2.137-18.662-4.269-40-6.4-64c-1.6-5.6-3.337-24.131-5.2-55.6c-1.338-3.2-2-5.2-2-6
		C124.531,14,126.4,11.2,128.8,8.8z M21.2,78H22h0.8l-9.2,18c-1.6,6.938-2.4,11.737-2.4,14.4c0.531,2.938,2,4.4,4.4,4.4
		c1.063,0,2.131-1.462,3.2-4.4h0.8l0.8,5.2c0,4.8-2.137,8.538-6.4,11.2c-4.269-1.6-6.4-4-6.4-7.2c-0.269-1.063-0.4-2.663-0.4-4.8
		c0-10.931,4.4-22.931,13.2-36L21.2,78z M57.6,116.8c2.4,0,4.931,2.8,7.6,8.4c-0.538,1.6-0.938,2.4-1.2,2.4l-8.8-2.4
		c0,3.737-1.6,6.668-4.8,8.8c-12.269,10.938-22.269,17.6-30,20v-0.4c7.462-4.8,18.263-13.462,32.4-26
		c-0.537-1.063-0.8-2.663-0.8-4.8c0-2.931,1.462-4.931,4.4-6H57.6z M85.2,134c0,4.269,6.931,8.938,20.8,14
		c1.6,2.138,2.4,4.669,2.4,7.6v0.4c0,3.2-0.4,4.8-1.2,4.8L88,155.2l-2.8-0.8c-11.2,0-24.4,6.663-39.6,20
		c-5.869,4.8-9.6,9.33-11.2,13.6c-3.469,3.73-6.538,10.398-9.2,20l-2.4,10.8l2.4,6.4c3.731,4.53,6.531,6.8,8.4,6.8h6
		c5.063,0,12.531-4.8,22.4-14.398c12.263-12.802,20.663-19.74,25.2-20.802c3.2-2.137,12.931-4.8,29.2-8
		c15.2-4.536,22.8-10,22.8-16.399c0-10.938-1.069-16.399-3.2-16.399c-11.469-6.4-19.869-16.4-25.2-30
		c-2.137-7.731-5.469-11.6-10-11.6c-4.269,0-9.469,6.269-15.6,18.8V134L85.2,134z M33.6,107.2c5.331,1.6,8,3.6,8,6v1.2
		c0,1.869-1.869,3.2-5.6,4c-2.4,0-3.6-2.131-3.6-6.4C32.931,108.8,33.331,107.2,33.6,107.2z M68.4,36.4
		c3.731,1.069,5.6,2.538,5.6,4.4L73.2,42l-2.4-1.2h-1.6l-0.8,0.4V42l3.2,8.4v3.2C69.462,60,60.263,67.6,44,76.4
		c-4.8,2.669-8,4-9.6,4c2.4-2.131,11.063-8,26-17.6C66.8,58,70,54.4,70,52v-0.8c-2.4-5.332-3.6-9.2-3.6-11.6v-0.8
		C66.4,37.737,67.063,36.938,68.4,36.4z M34.8,111.2h-0.4v3.2c0,0.269,0.531,0.4,1.6,0.4c2.131-0.262,3.2-0.662,3.2-1.2
		C37.862,112,36.4,111.2,34.8,111.2z M39.6,193.602h0.8c4.263,3.198,7.2,7.6,8.8,13.198c1.331,4,2,6.933,2,8.802
		c-0.538,3.198-1.069,4.799-1.6,4.799h-0.4v-0.799V218v-2.398c0-4.539-3.338-11.069-10-19.602
		C39.2,194.398,39.331,193.602,39.6,193.602z M118,62.8v0.4v1.6c0,1.338-9.737,6-29.2,14c-2.4,1.069-11.469,5.338-27.2,12.8
		l-17.2,9.2H44V100v-2.4c10.931-6.663,35.331-18.263,73.2-34.8H118z M70.8,176.398h2.4c2.131,0.265,4.931,2,8.4,5.201v1.601
		c-0.269,1.6-2,4-5.2,7.198c-4.269-2.398-6.938-3.6-8-3.6c-1.069,0-2.4,2.264-4,6.801H64c-2.669,0-6.4-1.469-11.2-4.399v-0.4
		c0.531-2.399,1.863-5.469,4-9.198h0.8c5.6,2.131,8.931,3.198,10,3.198h0.8L70.8,176.398z M54.4,44.4h0.8c4,0,8.4,2.269,13.2,6.8v2
		v2c-4.538-3.731-7.337-5.6-8.4-5.6h-2.4c-1.6-0.263-2.8-1.2-3.6-2.8v-2L54.4,44.4z M56.4,120.4l-0.8,0.8v0.8
		c0,0.538,1.6,0.938,4.8,1.2v-0.4C58.8,121.2,57.462,120.4,56.4,120.4z M146.4,161.2c0,6.399-1.069,11.6-3.2,15.6
		c0,1.863-2.4,6.132-7.2,12.802c-3.737,4.262-13.869,8.53-30.4,12.799c-5.6,0.531-9.069,1.463-10.4,2.801
		c-6.938,1.861-10.4,3.6-10.4,5.199c-13.069,16.531-19.6,30.8-19.6,42.8v3.6c2.131,6.662,6.931,10,14.4,10h1.6
		c5.6,0,14.662-4.536,27.2-13.6c2.663-1.869,11.863-11.47,27.6-28.802c14.4-13.067,26.531-19.6,36.4-19.6l8.4,0.4
		c0-0.801,0.531-2.27,1.6-4.4h0.8c11.462,7.2,23.063,10.801,34.8,10.801h4.799c4,0,6-0.537,6-1.601
		c-1.6-8.269-3.198-20.138-4.799-35.601c-0.538-1.869-0.801-3.601-0.801-5.199h-0.4l-24.399,0.4l-6.4-0.4l1.2,6.4
		c-1.869,13.6-3.069,20.398-3.6,20.398l-1.6,0.8l-1.6-19.601v-0.801c0-5.867-1.6-8.799-4.8-8.799
		C174.663,167.602,162.931,165.462,146.4,161.2z M75.2,91.2h0.4v0.4c-1.069,3.737-1.6,6-1.6,6.8v3.2c0,1.069,0.531,1.6,1.6,1.6
		c0.531,0,0.8-0.531,0.8-1.6l1.2-0.4l1.2,0.4v1.6c-0.8,2.668-2,4-3.6,4h-0.4c-1.6-1.063-2.4-3.2-2.4-6.4
		C72.4,96.269,73.331,93.069,75.2,91.2z M88.8,232.398c3.2,0.265,6.8,2.265,10.8,6c0,3.201-1.469,6.4-4.4,9.602h-0.4l-11.2-5.602
		V241.6C84.663,238.663,86.4,235.602,88.8,232.398z M100.8,17.2h1.2c1.862,1.068,2.8,2.668,2.8,4.8v1.6c0,2.4-1.337,6.938-4,13.6
		h1.6c4,0,6.531,0.8,7.6,2.4v1.6c0,4-2.138,8.137-6.4,12.4c-6.669,2.668-11.2,4-13.6,4h-1.2V56c1.063-1.063,4.531-2.8,10.4-5.2
		c1.331-1.063,2-1.862,2-2.4V48H88.8L86,48.4l-0.8-1.2c0-2.663,1.6-6,4.8-10h7.6c2.131-2.131,4.131-6.4,6-12.8v-0.8
		c-0.269-1.863-1.2-2.8-2.8-2.8H100c0,0.8-0.138,1.2-0.4,1.2h-0.4v-2C99.462,18.138,100,17.2,100.8,17.2z M142.4,200.398l0.4,1.201
		v0.799c-1.337,1.863-7.2,5.332-17.6,10.4c-8.538,4.801-15.469,8.4-20.8,10.801v-0.8V222C117.462,213.2,130.131,206,142.4,200.398z
		 M119.6,164.398c3.2,3.463,4.8,6.664,4.8,9.602v1.602c-0.269,1.063-1.069,1.6-2.4,1.6c-0.269,0-1.069-0.27-2.4-0.801
		c-1.069,1.601-2,2.399-2.8,2.399h-2c-1.6,0-2.537-2.269-2.8-6.8c-0.269,0-0.669-0.8-1.2-2.398l0.8-0.4h0.4c0.8,0,1.462,2.131,2,6.4
		h0.4h2.4c0.263,0,0.663-0.539,1.2-1.602l-1.6-5.602V167.2h0.4c0.8,0.262,2,2.262,3.6,6l1.6,0.8h1.2
		C120.8,168.398,119.6,165.2,119.6,164.398z M114.4,78.8v0.8V82c4,1.6,6,3.469,6,5.6v1.6c-0.8,1.337-2.668,2-5.6,2h-0.4
		c-1.6,0-2.4-0.8-2.4-2.4v-0.4v-0.8v-0.8C112,82.538,112.8,79.869,114.4,78.8z M114,85.2l-0.8,1.2v1.2c0.531,0.8,1.063,1.2,1.6,1.2
		c2.131-0.262,3.2-0.662,3.2-1.2C116.931,86,115.6,85.2,114,85.2z M124,276.8v1.2c0,12,4,18,12,18h2.4
		c7.2,0,17.731-7.868,31.6-23.602c7.731-7.469,17.063-12.537,28-15.198c11.731-2.669,20.799-5.47,27.2-8.4c4-1.6,6-4.536,6-8.8
		v-1.602c0-9.867-0.537-14.799-1.6-14.799l-4,0.799c-9.87-0.537-16.938-1.336-21.201-2.398c-0.8,0-1.337,2.264-1.6,6.8
		c-0.537,1.601-0.938,2.4-1.2,2.4h-3.2c-4.269,0-9.869-4.4-16.8-13.2c-3.2-1.602-6-2.398-8.4-2.398c-5.6,0-12.938,2.93-22,8.799
		c-5.6,4.264-8.4,7.601-8.4,10C130.263,252,124,266.132,124,276.8z M215.2,1.2h0.4c3.199,4.537,6.262,12.537,9.199,24
		c1.863,10.137,4,18.137,6.4,24c2.131,4.537,5.463,7.869,10,10L244,60.4c6.662-0.8,10-2.531,10-5.2v-1.6
		c0-1.063-2.538-7.6-7.601-19.6c-2.67-6.931-4.539-12.931-5.602-18l-1.6-2.4V12c0-4.531,1.199-7.331,3.6-8.4H244
		c5.063,9.069,7.601,14,7.601,14.8c0,0.269-0.271,0.4-0.802,0.4l-2-1.2v0.8c0,2.669,2.802,10.938,8.4,24.8
		c1.063,4.8,1.6,8.537,1.6,11.2c0,8.269-3.198,13.869-9.6,16.8l-4.4,0.4c-6.938,0-13.067-6-18.399-18v-0.4H225.2
		c-0.801,4.537-3.2,9.469-7.2,14.8c-1.069,1.6-4.269,3.869-9.601,6.8H208l-8.4,0.4c-7.2-1.863-10.8-3.863-10.8-6
		c-3.2-2.932-4.8-6-4.8-9.2l-1.6-8c0-4.263,0.8-10.263,2.4-18v-1.6c0-1.063-0.269-1.6-0.8-1.6c-4.269,0-7.337,9.738-9.2,29.2
		c-2.4,10.138-5.6,15.2-9.6,15.2h-0.8c-6.4,0-11.2-7.2-14.4-21.6c-0.8-2.663-1.2-5.6-1.2-8.8v-3.6c0-2.131,0.4-5.063,1.2-8.8
		l-4.8,3.2l-0.4-0.8L158,17.6l2-4.8h-1.2c-2.137,0-3.2-1.862-3.2-5.6v-2V3.6V2.4h1.6c2.662,0,6.531,2.538,11.6,7.6v2v1.6l-0.4,0.8
		l-6.4-0.8c-2.138,5.069-5.337,10-9.6,14.8h-0.8l0.8,4c-0.538,3.738-0.8,6.938-0.8,9.6v1.2l-0.4,0.4h0.4v3.6
		c0,7.2,2.663,12.8,8,16.8c1.6,0.8,2.663,1.2,3.2,1.2h1.6c4.531,0,7.462-6.531,8.8-19.6c1.063-10.663,3.862-19.6,8.4-26.8l2.4-1.2
		h2.4c1.6,1.337,2.4,3.337,2.4,6v0.8L186.4,46v2c0,6.669,3.462,11.6,10.4,14.8l3.6,0.4h4c6.931,0,12.132-4,15.601-12
		c1.063-1.863,1.6-4,1.6-6.4c0-5.6-3.067-16.8-9.2-33.6V10C214,4.138,214.931,1.2,215.2,1.2z M184,237.2v0.399v1.601
		c-2.138,1.6-9.737,5.862-22.8,12.8c-5.069,3.462-9.2,6-12.4,7.602l-0.8-0.4V258c0.8-1.602,5.2-4.669,13.2-9.2
		c11.462-6.399,18.8-10.269,22-11.6H184z M162.8,89.2c2.131,2.137,3.2,3.737,3.2,4.8v0.8l-0.8,0.4l-2.8-1.6
		c-0.8,1.069-1.2,2.269-1.2,3.6v4.4c2.4,1.337,3.6,2.4,3.6,3.2v0.8c0,0.538-0.137,1.069-0.4,1.6h-4c-2.668,0.537-4,1.337-4,2.4
		c4,8.8,6,14,6,15.6v0.8h0.4l-0.4,4v0.8c-0.269,0-0.938-2.4-2-7.2c-3.469-8.263-5.2-13.462-5.2-15.6c0-1.331,0.8-2.663,2.4-4v-4
		c0-1.862-1.2-3.462-3.6-4.8l-2.4,0.8l-1.2-1.2v-2.4l1.2-1.6c2.131,0,4.531,2.138,7.2,6.4h0.8C159.6,91.869,160.663,89.2,162.8,89.2
		z M158,7.6l-0.4,2h0.4l2.4,0.4h0.8V8L158,7.6z M171.2,177.2h0.8c1.862,0.53,3.2,2.131,4,4.8c-0.8,0.531-1.337,0.8-1.6,0.8
		L172,180.4c-1.337,6.132-2.138,9.731-2.4,10.801h-0.8c-3.469-4.537-5.469-6.801-6-6.801c-1.869,0-3.2-0.799-4-2.399v-2.399
		c0-0.27,0.531-0.537,1.6-0.801c1.6,0,4.263,2.662,8,8h0.4v-1.6C169.331,179.861,170.131,177.2,171.2,177.2z M163.6,8.8l-0.8,1.6
		l4,1.6v-0.8C165.731,10.138,164.663,9.337,163.6,8.8z M193.2,0h1.2c2.663,1.869,6,8,10,18.4l0.8,4v6l-0.8,0.8
		c-1.069-6.4-2.269-11.332-3.6-14.8c-2.4-4.531-5.068-8.531-8-12V1.2V0.4L193.2,0z M213.2,47.2v2c-0.538,1.068-1.469,1.6-2.8,1.6
		l-4.4-2.4c-0.538,1.869-1.069,2.8-1.6,2.8h-1.6c-2.938,0-4.4-1.863-4.4-5.6v-4.8H198h-0.8v-0.4c0-2.131,0.662-3.2,2-3.2l1.2,2.4
		l-0.8,7.6c0.8,0.8,1.6,1.2,2.4,1.2c2.131,0,3.2-0.8,3.2-2.4v-1.2l-2-6V38h1.2c0.8,0.538,2,3.469,3.6,8.8c0.8,0.8,1.6,1.2,2.4,1.2
		c0.8,0,1.2-0.4,1.2-1.2c-2.138-5.862-3.2-9.331-3.2-10.4h0.8C210,36.4,211.331,40,213.2,47.2z M203.6,111.2l0.8,0.8l-3.6,10v7.2
		c0.8,0.537,1.2,1.337,1.2,2.4h0.8c1.6,0,2.4-1.063,2.4-3.2h0.4c0.8,0.538,1.2,1.337,1.2,2.4c-0.8,2.669-2.137,4-4,4
		c-2.4-0.531-3.6-2.931-3.6-7.2v-4C199.2,119.069,200.663,114.938,203.6,111.2z M212.4,234.398h0.4c1.332,0,2.663,2.4,4,7.201
		c-0.268,1.601-0.8,2.4-1.6,2.4h-0.4h-2.4c-2.137,1.602-3.6,2.398-4.4,2.398h-0.4c-1.337,0-2.4-2.398-3.2-7.198l-1.6-2V236l0.4-0.8
		c1.862,0,3.063,2.399,3.6,7.198l0.8,0.802c1.862,0,2.8-1.068,2.8-3.2l-2-3.2v-1.6l0.8-0.4c1.6,1.332,2.8,3.601,3.6,6.802h2V240.8
		l-2.4-6V234.398L212.4,234.398z M210.4,176.8l0.4,0.4c-1.6,6.661-2.4,11.063-2.4,13.198c0,1.063,0.663,2.133,2,3.201l2.4-2.399
		l0.4,0.399v2c0,1.601-0.938,2.662-2.8,3.199c-2.4-1.6-3.6-3.469-3.6-5.6v-2C206.8,182.8,208,178.663,210.4,176.8z M210.4,290.398
		c0,8.265,4.8,12.4,14.399,12.4c5.332,0,18.265-7.469,38.802-22.4c10.399-6.938,19.33-10.938,26.799-12h0.399V268l-0.399-4.8V262
		c0-10.938,5.332-21.2,16.001-30.8l1.199-0.4h1.601c1.332,0,3.73,4.4,7.2,13.2c3.199,3.73,7.199,5.602,12,5.602
		c11.199,0,20.53-5.338,28-16l1.601-1.201l0.399,0.399L358,240c1.063,2.663,2.662,4,4.8,4h1.2c5.063,0,9.6-4.398,13.6-13.2l2.4-2
		h0.399v8c1.601,3.2,4,4.802,7.199,4.802h0.801c4.8,0,7.861-1.869,9.199-5.602c-0.8-2.669-4.399-10.27-10.8-22.8l-6.399-16.4
		l-1.601-0.8l2.399-10.398h-0.8c-8.801,1.6-18.938,5.063-30.399,10.398c-21.601,6.932-36.538,11.331-44.801,13.2
		c-10.4,3.729-26.938,7.463-49.6,11.198c-5.601,1.332-11.201,2.133-16.802,2.4c-1.337,0-2,4.131-2,12.4
		c-1.067,8.531-2.938,14.662-5.6,18.4c-8,8-13.737,16-17.2,24C211.6,282.663,210.4,286.932,210.4,290.398z M227.601,274.398v0.802
		H228c-1.069,4.262-1.601,7.463-1.601,9.6v1.601c0.8,1.063,1.601,1.601,2.398,1.601c0.531,0,1.063-0.8,1.602-2.399l1.601,1.601
		c0,2.131-0.801,3.729-2.399,4.8c-3.201,0-4.802-2.398-4.802-7.199C224.799,280.264,225.731,276.8,227.601,274.398z M272.799,250.8
		h0.4v2.4c-1.339,1.6-8.668,5.729-22,12.399c-5.601,3.199-10.4,5.463-14.4,6.799V270C259.731,257.2,271.731,250.8,272.799,250.8z
		 M238.799,121.2l6.4,4c1.331,2.137,2,3.737,2,4.8c-1.601,2.138-3.47,3.2-5.601,3.2c-2.668,0-4-1.6-4-4.8L238.799,121.2z
		 M239.2,129.2l3.6,0.8c1.332-0.531,2-1.063,2-1.6l-5.6-3.2V129.2z M248.399,180.8c4.801,3.731,7.201,6.4,7.201,8
		c-1.068,2.132-2.537,3.2-4.4,3.2h-2.4c-1.867,0-2.799-1.602-2.799-4.8v-0.4C246,184.132,246.799,182.132,248.399,180.8z
		 M248.399,185.602c0,0.799-0.269,1.198-0.799,1.198l0.799,2h3.201l0.799-0.8c0-0.8-1.199-1.602-3.601-2.398H248.399z M280.799,226
		h0.802c3.463,0,5.861,2.8,7.198,8.398l-1.6,0.4l-7.199-0.4c-2.67,3.732-8.14,8-16.399,12.802c-6.67,4-10.938,6.131-12.802,6.399
		V253.2c1.063-1.601,5.332-4.669,12.802-9.2c9.861-5.868,14.799-9.068,14.799-9.602C278.931,228.8,279.731,226,280.799,226z
		 M258,222.398l0.399,0.4v0.801c-1.602,3.463-2.399,6.531-2.399,9.199c0.799,0.531,1.462,0.801,2,0.801h0.399
		c0-0.537,0.398-0.938,1.199-1.201l1.601,1.201c-0.537,2.399-1.869,3.601-4,3.601h-0.8c-1.069,0-1.868-1.601-2.399-4.802
		C254,229.2,255.331,225.861,258,222.398z M296.399,288v0.8v1.601c-0.799,1.063-4.137,3.063-10,6
		c-6.398,3.201-10.668,4.932-12.799,5.201c-4.271,4.53-7.869,6.93-10.802,7.198v-2c2.663-2.938,9.863-7.338,21.601-13.198
		C290.799,289.861,294.799,288,296.399,288z M269.2,17.2v0.4c-2.4,7.737-3.6,12.938-3.6,15.6c0.799,0.537,1.6,0.8,2.399,0.8
		l1.601-1.6h0.799V34c-0.537,2.669-1.336,4-2.398,4c-2.938,0-4.4-2.663-4.4-8C263.601,23.869,265.462,19.6,269.2,17.2z M271.2,59.2
		l-0.4,4.8c0.264,1.6,1.063,2.4,2.4,2.4l2.4-0.8V68c-0.802,1.337-1.601,2-2.4,2c-2.668-0.531-4-2-4-4.4V64
		C269.2,61.6,269.862,60,271.2,59.2z M280,88.4c1.601,1.6,2.399,3.069,2.399,4.4V94L280,91.6h-0.8v0.8l-1.6,6.8
		c3.729,1.337,5.6,2.8,5.6,4.4v0.4c0,1.069-2.137,1.737-6.4,2c-0.799,0.269-1.199,0.938-1.199,2c2.933,4.269,4.933,9.737,6,16.4v1.6
		H280.8l-7.199-20c1.601-1.862,2.4-4.263,2.4-7.2l-2.4-4l-2.801,0.4h-0.4l-0.799-1.2v-4l0.799-0.8h0.399c0.265,0,2.265,2,6,6v-0.4
		C276.799,91.069,277.862,88.938,280,88.4z M281.601,230l0.799,1.2h2c-0.269-0.802-0.938-1.2-2-1.2H281.601z M288,166h1.199
		l-3.601,9.602l-0.801,4c1.063,2.131,2.133,3.198,3.201,3.198l1.6-2l0.801,0.802v1.198c0,2.662-1.069,4-3.2,4
		c-2.669-1.6-4-3.338-4-5.198C283.2,173.331,284.799,168.132,288,166z M308.799,68.8h0.4l-0.4,5.2c0,2.4,0.801,3.6,2.4,3.6h0.399
		l0.801-2h0.398c0.531,0,0.801,0.668,0.801,2c-0.537,2.938-1.6,4.4-3.199,4.4c-2.399-1.6-3.602-3.862-3.602-6.8
		C307.862,70.938,308.532,68.8,308.799,68.8z M329.6,22c1.601,1.869,2.4,3.737,2.4,5.6v0.8c0,4.269-2,9.2-6,14.8v0.4h4.799
		c3.201,0,5.201,0.668,6,2v1.2c0,4.269-2.268,8.4-6.799,12.4c-5.069,3.2-10,4.8-14.801,4.8h-0.4v-0.8
		c1.863-1.863,5.602-4.263,11.201-7.2l2-0.8v-1.6h-11.201H310.4c2.132-6.663,3.73-10,4.8-10h1.6h7.2c4-6.4,6-10.663,6-12.8v-1.2
		c0-1.6-0.538-2.8-1.601-3.6l-2,1.2H326c-0.27,0-0.4-0.131-0.4-0.4C325.6,24.669,326.931,23.069,329.6,22z M386.8,62.4l0.8,0.4
		c0,1.869-1.067,2.8-3.199,2.8L371.6,71.2C333.2,83.737,314,92.4,314,97.2v1.6h2.399h0.398l4.801-1.6l0.8,2
		c0,1.6-1.867,2.938-5.601,4H313.6c-1.6-1.063-2.399-2.4-2.399-4v-2c0-6.4,11.332-13.063,34-20
		C371.332,67.337,385.2,62.4,386.8,62.4z M338.799,276.8c2.663,1.332,4,3.332,4,6c-1.067,1.863-2.668,2.802-4.799,2.802
		c-0.538,0-1.201,1.33-2,4h-2.8L330,288c-2.938,0-7.601,4.398-14,13.2h-1.201v-0.802c0.801-4,4.4-8.668,10.801-14
		c1.862-1.067,3.199-1.6,4-1.6h1.199c0.801,0.531,1.602,0.801,2.4,0.801h0.399c1.331,0,2.132-0.27,2.4-0.801l-1.201-1.6
		c0.801-1.869,1.463-2.801,2-2.801c0,1.332,0.663,2.131,2,2.399l0.801-0.399l-1.199-2V277.6L338.799,276.8z M318.799,113.2
		c0.265,0,0.663,0.8,1.201,2.4c4,1.6,6,3.469,6,5.6c0,2.668-2,4.269-6,4.8c-1.069-0.531-1.869-1.063-2.4-1.6
		C317.6,116.938,318,113.2,318.799,113.2z M318.799,118.8v2c0.265,1.338,0.663,2,1.201,2h1.199c1.6,0,2.531-0.531,2.801-1.6
		c-2.67-1.6-4.27-2.4-4.801-2.4H318.799z M331.2,162.398c1.6,0.802,3.2,2.4,4.801,4.802v0.399c0,1.063-0.538,1.601-1.601,1.601
		H333.6c-0.801-1.339-1.199-2.138-1.199-2.4H332l-0.801,4.802V172c0,3.462-0.4,5.2-1.199,5.2c-4-3.738-6.139-5.601-6.4-5.601
		c-2.938,0-4.399-0.537-4.399-1.601v-2.8L320,166h1.199c1.332,0,3.73,2,7.2,6h0.398v-2.8C328.799,165.462,329.6,163.2,331.2,162.398
		z M324.799,220c4.265,2.398,6.4,4.531,6.4,6.398v0.802c-1.601,2.399-3.469,3.6-5.601,3.6c-2.138,0-3.469-1.198-4-3.6l0.801-6.802
		L324.799,220z M324,224.8v0.4v2h2l2.399-0.802V226c-1.338-1.068-2.538-1.602-3.602-1.602L324,224.8z M348.4,200v0.398
		c-2.139,6.664-3.2,10.4-3.2,11.201v1.199c0,3.463,0.801,5.2,2.399,5.2h2.4V215.6h0.799v2.4c0,2.663-1.067,4-3.199,4
		c-2.669-1.337-4-4.27-4-8.8c0-2.669,1.331-7.068,4-13.2H348.4z M352.4,260.8c4,1.601,7.063,3.332,9.199,5.2v0.8
		c-2.138,5.863-3.737,8.802-4.801,8.802c-2.938-0.802-6.268-2.539-10-5.201C350,264,351.862,260.8,352.4,260.8z M351.6,50.8h0.801
		v2.4c2.931,0,4.931,1.737,6,5.2v0.8c0,2.137-1.2,3.337-3.602,3.6h-1.6c-2.138,0-3.199-0.8-3.199-2.4v-6.8
		C350,52,350.532,51.069,351.6,50.8z M351.6,56l-0.801,0.8v0.8c0.801,1.6,1.332,2.4,1.602,2.4h3.199l1.199-1.6V58
		C353.862,56.669,352.131,56,351.6,56z M381.6,262.8l0.801,0.802v1.6c-2.139,1.861-6.139,4.531-12,8l-8.801,6l-0.8-0.4v-1.199
		c2.662-3.201,7.462-6.801,14.399-10.801L381.6,262.8z M366.4,206.398h0.399c1.331,1.602,3.601,3.201,6.8,4.802l0.4,1.6v1.2
		c0,2.398-0.938,3.602-2.801,3.602c-2.668,0-4.8-0.802-6.399-2.4V210C365.332,207.602,365.863,206.398,366.4,206.398z M366.8,211.2
		v0.399l0.4,2.4h3.2v-0.8v-0.4c-0.537-1.067-1.337-1.6-2.399-1.6H366.8z M381.2,71.6h0.399v0.8c-3.199,6.4-4.8,10.4-4.8,12v0.8
		c0,1.6,0.8,2.8,2.399,3.6H380c0-1.331,0.399-2,1.199-2l0.399,0.8V90c0,1.6-0.399,2.538-1.199,2.8h-1.601
		c-1.869,0-3.068-2.531-3.601-7.6c0.801-5.332,2.53-9.6,5.2-12.8L381.2,71.6z M378.8,134l0.399,0.4v2.4c-0.8,0-1.601,2-2.399,6
		c0.531,1.069,0.932,1.6,1.2,1.6h0.8l2.399-1.6l0.399,0.4v2c0,1.068-0.8,2.269-2.399,3.6H378.8c-2.399,0-3.601-1.6-3.601-4.8v-1.2
		C375.2,138,376.4,135.069,378.8,134z M395.6,92.8c0.531,0.538,2,1.338,4.4,2.4c2.399,1.6,3.6,3.2,3.6,4.8v0.8
		c0,1.869-1.6,2.938-4.8,3.2h-1.2c-2.399-0.263-3.6-1.6-3.6-4v-4C394.532,93.869,395.063,92.8,395.6,92.8z M395.6,97.2v2.8
		c0.531,0.8,1.2,1.2,2,1.2h2c0.531,0,1.063-0.4,1.601-1.2C400.131,98.138,398.262,97.2,395.6,97.2z M403.6,141.6
		c2.4,0.269,3.601,0.8,3.601,1.6v2c-1.337,4-2,6.537-2,7.6v0.8l4.399,0.4l8-2.4v0.4c0,3.2-3.067,5.063-9.199,5.602h-1.2
		c-2.138,0-3.737-1.202-4.8-3.602l2.399-7.6l-0.8-0.8h-2h-2.4v-0.4C399.6,142.8,400.931,141.6,403.6,141.6z M406,194.398h2.8
		c1.601,0,2.399,0.802,2.399,2.4v0.801l-2.8,9.199l1.199,0.801h4l5.601-1.201h0.399c0,2.664-2.399,4.265-7.199,4.802H412
		c-3.738,0-5.601-1.2-5.601-3.601v-2c0-0.537,1.063-3.201,3.199-8h-2h-4h-0.8C402.8,195.462,403.863,194.398,406,194.398z"/>
</g>
</svg>
